<svg width="800" height="495" viewBox="0 0 800 495" fill="none" xmlns="http://www.w3.org/2000/svg">
<path d="M642.364 137.86C578.387 137.86 532.701 165.273 530.415 222.382C529.403 247.601 526.912 313.424 612.667 329.762C708.611 348.038 800 345.754 800 286.36C800 226.953 706.326 137.86 642.364 137.86Z" fill="white"/>
<path d="M281.39 217.815C292.812 192.687 297.381 197.254 297.381 162.988C297.381 140.491 285.959 94.4443 233.418 103.582C226.964 104.699 220.418 107.266 213.886 110.846C188.334 78.4537 157.02 13.7584 153.453 3.05682C148.884 -10.6494 89.4888 25.9131 62.0638 30.4818C34.6497 35.0506 11.8075 28.1974 2.66846 32.7662C-6.46904 37.3349 9.52158 60.1787 25.5122 62.4631C41.5028 64.7474 71.2013 44.1881 71.2013 44.1881L144.315 19.06C144.315 19.06 175.09 80.5459 201.834 118.662C159.625 149.591 121.47 215.53 121.47 215.53C121.47 215.53 82.6216 245.227 96.3419 249.796C110.048 254.365 137.461 242.943 137.461 242.943C137.461 242.943 269.968 242.943 281.39 217.815Z" fill="white"/>
<path d="M710.447 467.122C710.356 467.122 699.473 463.091 686.229 458.435C673.254 453.955 658.265 448.924 648.306 446.371C647.575 445.741 646.022 444.087 644.365 441.622C640.618 436.321 636.05 427.454 631.584 417.674C624.911 402.877 618.326 385.602 613.578 372.166C611.203 365.404 609.189 359.551 607.815 355.443C607.186 353.429 606.622 351.785 606.262 350.694C605.903 349.591 605.723 349.052 605.723 349.052C604.261 344.38 600.14 341.094 595.2 340.737C595.2 340.737 579.3 339.633 561.665 338.171C552.809 337.438 543.583 336.708 535.715 335.976C529.401 335.346 523.831 334.782 520.547 334.333C519.815 333.512 518.442 331.958 516.978 329.944C513.051 324.465 507.931 315.776 502.822 306.01C499.075 299.054 495.237 291.572 491.67 284.166C491.49 284.077 491.298 284.077 491.118 283.987C482.803 281.421 472.562 278.315 461.512 276.21C464.811 283.257 468.558 290.932 472.395 298.785C478.697 311.671 485.55 324.646 491.851 334.976C495.047 340.097 498.062 344.576 501.257 348.322C502.823 350.235 504.376 351.879 506.378 353.521C508.303 354.983 510.678 356.729 514.784 357.462C518.904 358.193 525.475 358.821 533.522 359.643C550.615 361.299 573.728 363.03 585.703 363.941C588.808 373.452 594.661 390.443 601.603 407.807C606.904 420.976 612.665 434.321 618.697 445.102C621.712 450.493 624.729 455.33 628.103 459.451C629.747 461.452 631.581 463.377 633.673 465.019C635.778 466.752 638.332 468.304 641.72 469.216C650.036 471.319 665.489 476.441 678.464 480.919C684.943 483.204 690.886 485.296 695.276 486.86C699.562 488.413 702.22 489.415 702.22 489.415C708.342 491.699 715.195 488.502 717.479 482.38C719.762 476.26 716.568 469.407 710.447 467.122Z" fill="white"/>
<path d="M405.673 276.76L404.478 328.673L339.053 338.529C334.215 339.274 330.275 342.932 329.184 347.679L303.414 461.732L266.954 471.32C260.551 473.053 256.803 479.546 258.457 485.848C260.189 492.251 266.672 495.999 272.986 494.345L316.389 482.921C320.689 481.742 323.975 478.353 324.975 474.067L350.578 360.835L417.929 350.696C423.679 349.785 427.978 344.934 428.068 339.184L429.442 274.118C427.606 274.207 425.784 274.478 424.051 274.657C417.826 275.579 411.703 276.312 405.673 276.76Z" fill="white"/>
<path d="M345.187 314.043C348.922 313.399 352.222 310.846 353.864 307.368L368.57 276.029C360.073 275.027 352.13 273.385 344.636 271.101L334.947 291.751L251.875 306.638C248.217 307.279 245.022 309.654 243.378 313.041L181.597 436.501L129.234 453.222C123.022 455.238 119.545 461.91 121.559 468.212C123.573 474.424 130.236 477.901 136.548 475.887L193.658 457.612C196.686 456.597 199.137 454.505 200.601 451.58L261.92 328.941L345.187 314.043Z" fill="white"/>
<path d="M516.709 263.503C512.14 242.943 514.425 210.962 514.425 210.962L464.156 192.687C464.156 192.687 443.595 194.971 425.322 162.989C407.045 131.007 349.936 108.151 317.942 133.292C308.972 140.351 308.536 178.942 306.52 194.971C301.951 231.523 343.072 263.503 420.753 252.081C470.687 244.74 519.237 274.875 516.709 263.503Z" fill="white"/>
</svg>
